<?xml version="1.0" encoding="UTF-8"?><!DOCTYPE svg PUBLIC "-//W3C//DTD SVG 1.1//EN"
    "http://www.w3.org/Graphics/SVG/1.1/DTD/svg11.dtd">
<svg
    style="shape-rendering:geometricPrecision; text-rendering:geometricPrecision; image-rendering:optimizeQuality; fill-rule:evenodd; clip-rule:evenodd"
    height="6.82666in" viewBox="0 0 6.82666 6.82666" width="6.82666in"
    xmlns="http://www.w3.org/2000/svg" xml:space="preserve">
 <defs>
  <style type="text/css">
   <![CDATA[
    .fil2 {fill:none}
    .fil0 {fill:#6E848E}
    .fil1 {fill:#9BADB6}
   ]]>
  </style>
 </defs>
    <g id="Layer_x0020_1">
  
  <g id="_246587720">
   <path style="fill: #6E848E;" class="fil0"
       d="M5.15272 3.18693c-0.00255118,-0.00427953 -0.00509449,-0.00952362 -0.00721654,-0.0144724 0.0157165,-0.041437 0.027878,-0.0841811 0.0364528,-0.127677 0.0100236,-0.0508386 0.0149685,-0.102579 0.0149685,-0.154394 0,-0.214665 -0.085815,-0.417823 -0.238425,-0.568386 -0.153862,-0.151791 -0.360244,-0.235346 -0.576236,-0.235346 -0.185921,0 -0.365374,0.0617913 -0.510961,0.177591 -0.143681,0.114287 -0.248795,0.273358 -0.285087,0.454638 -3.93701e-005,0.000188976 -9.84252e-005,0.00046063 -0.000177165,0.000728346 -9.84252e-005,-2.3622e-005 -0.000192913,-4.72441e-005 -0.000291339,-7.48031e-005 -0.0872953,-0.0904961 -0.203843,-0.136811 -0.329563,-0.124539 -0.0698307,0.00681496 -0.137429,0.0315157 -0.196063,0.0698976 -0.0582795,0.0381535 -0.107571,0.0898898 -0.140693,0.151319 -0.0576614,0.106945 -0.0618189,0.228189 -0.0107205,0.338673 1.5748e-005,3.54331e-005 2.75591e-005,6.69291e-005 4.72441e-005,0.000102362 -0.000358268,0.000594488 -0.000767717,0.00120866 -0.0012126,0.00182677 -0.158154,0.0090315 -0.306654,0.0770984 -0.416343,0.191508 -0.109366,0.114071 -0.170209,0.264346 -0.170209,0.422508 0,0.16422 0.065622,0.319693 0.182378,0.434882 0.117724,0.116142 0.275665,0.180055 0.440921,0.180055l2.40574 0c0.165256,0 0.323201,-0.0639134 0.440925,-0.180055 0.116756,-0.115185 0.182378,-0.270661 0.182378,-0.434882 0,-0.16422 -0.065622,-0.319697 -0.182378,-0.434886 -0.117724,-0.116142 -0.275669,-0.180055 -0.440925,-0.180055 -0.0362913,0 -0.072563,0.00300394 -0.108331,0.00918504 -0.00932283,0.0016063 -0.018689,0.00298425 -0.0279961,0.00469685 -0.021185,0.00388976 -0.0410236,0.00998819 -0.0609803,0.0171575z"
       id="_246587240" />
      <path style="fill: #9BADB6;" class="fil1"
          d="M1.71946 3.47466c0.00269685,-0.00451575 0.00538189,-0.0100512 0.00762205,-0.0152756 -0.0165906,-0.0437362 -0.0294252,-0.0888504 -0.0384764,-0.134756 -0.0105827,-0.0536614 -0.0157992,-0.108272 -0.0157992,-0.162961 0,-0.226575 0.0905748,-0.441 0.251654,-0.599913 0.162394,-0.160217 0.380228,-0.248406 0.608201,-0.248406 0.196236,0 0.385642,0.0652165 0.539303,0.187441 0.151654,0.12063 0.262598,0.288524 0.300906,0.479858 3.93701e-005,0.000200787 0.000102362,0.000488189 0.000185039,0.000771654 0.000102362,-2.75591e-005 0.000204724,-5.51181e-005 0.000307087,-8.26772e-005 0.0921378,-0.0955157 0.21515,-0.144398 0.347843,-0.131449 0.0737087,0.00719291 0.145059,0.0332638 0.206941,0.0737795 0.0615118,0.0402677 0.113539,0.094874 0.1485,0.159713 0.0608583,0.112878 0.065248,0.240846 0.011315,0.357461 -1.5748e-005,3.54331e-005 -3.14961e-005,7.08661e-005 -5.11811e-005,0.000106299 0.000377953,0.000625984 0.000811024,0.00127559 0.00127953,0.00192913 0.166929,0.0095315 0.323665,0.081378 0.439437,0.20213 0.115437,0.120398 0.179654,0.279012 0.179654,0.445945 0,0.173331 -0.0692638,0.337429 -0.192496,0.459008 -0.124252,0.122583 -0.290957,0.190047 -0.465382,0.190047l-2.53919 0c-0.174421,0 -0.34113,-0.0674606 -0.465382,-0.190043 -0.123232,-0.121579 -0.192496,-0.285681 -0.192496,-0.459012 0,-0.173331 0.0692638,-0.337429 0.192496,-0.459008 0.124252,-0.122587 0.290961,-0.190043 0.465382,-0.190043 0.0383071,0 0.0765945,0.00316929 0.114343,0.00969291 0.00984252,0.00169685 0.0197283,0.00315354 0.0295512,0.00495669 0.0223583,0.0041063 0.0432992,0.0105433 0.0643583,0.0181102z"
          id="_246587480" />
  </g>
 </g>
    <rect style="fill: none;" class="fil2" height="6.82666" width="6.82666" />


    <metadata>
		<rdf:RDF xmlns:dc="http://purl.org/dc/elements/1.1/"
            xmlns:rdf="http://www.w3.org/1999/02/22-rdf-syntax-ns#">
			<rdf:Description about="https://iconscout.com/legal#licenses" dc:date="2016-12-14"
                dc:description="Cloudy, Cloud, Snow, Weather" dc:format="image/svg+xml"
                dc:language="en" dc:publisher="Iconscout" dc:title="Cloudy, Cloud, Snow, Weather">
				<dc:creator>
					<rdf:Bag>
						<rdf:li>Design 0 Fire</rdf:li>
					</rdf:Bag>
				</dc:creator>
			</rdf:Description>
		</rdf:RDF>
    </metadata></svg>
