<?xml version="1.0" encoding="UTF-8" standalone="no"?>
<svg xmlns:dc="http://purl.org/dc/elements/1.1/"
    xmlns:rdf="http://www.w3.org/1999/02/22-rdf-syntax-ns#"
    style="enable-background:new 0 0 47.5 47.5;" id="svg2" version="1.1" viewBox="0 0 47.5 47.5"
    xmlns="http://www.w3.org/2000/svg" xml:space="preserve"><defs id="defs6"><clipPath clipPathUnits="userSpaceOnUse" id="clipPath16"><path d="M 0,38 38,38 38,0 0,0 0,38 Z" id="path18"/></clipPath></defs>
    <g id="g10" transform="matrix(1.25,0,0,-1.25,0,47.5)"><g id="g12"><g clip-path="url(#clipPath16)" id="g14"><g id="g20" transform="translate(37,19)"><path style="fill:#ccd6dd;fill-opacity:1;fill-rule:nonzero;stroke:none" d="m 0,0 c 0,-9.941 -8.059,-18 -18,-18 -9.941,0 -18,8.059 -18,18 0,9.941 8.059,18 18,18 C -8.059,18 0,9.941 0,0" id="path22"/></g><g
        id="g24" transform="translate(15,28.5)"><path style="fill:#b8c5cd;fill-opacity:1;fill-rule:nonzero;stroke:none" d="M 0,0 C 0,-1.933 -1.566,-3.5 -3.5,-3.5 -5.434,-3.5 -7,-1.933 -7,0 -7,1.933 -5.434,3.5 -3.5,3.5 -1.566,3.5 0,1.933 0,0" id="path26"/></g><g
        id="g28" transform="translate(24,20)"><path style="fill:#b8c5cd;fill-opacity:1;fill-rule:nonzero;stroke:none" d="m 0,0 c 0,-1.657 -1.343,-3 -3,-3 -1.657,0 -3,1.343 -3,3 0,1.657 1.343,3 3,3 1.657,0 3,-1.343 3,-3" id="path30"/></g><g
        id="g32" transform="translate(29,8.5)"><path style="fill:#b8c5cd;fill-opacity:1;fill-rule:nonzero;stroke:none" d="M 0,0 C 0,-1.934 -1.566,-3.5 -3.5,-3.5 -5.434,-3.5 -7,-1.934 -7,0 -7,1.934 -5.434,3.5 -3.5,3.5 -1.566,3.5 0,1.934 0,0" id="path34"/></g><g
        id="g36" transform="translate(25,32)"><path style="fill:#b8c5cd;fill-opacity:1;fill-rule:nonzero;stroke:none" d="m 0,0 c 0,-1.104 -0.896,-2 -2,-2 -1.104,0 -2,0.896 -2,2 0,1.104 0.896,2 2,2 1.104,0 2,-0.896 2,-2" id="path38"/></g><g
        id="g40" transform="translate(3,19)"><path style="fill:#b8c5cd;fill-opacity:1;fill-rule:nonzero;stroke:none" d="M 0,0 C 0,-0.553 0.448,-1 1,-1 1.552,-1 2,-0.553 2,0 2,0.552 1.552,1 1,1 0.448,1 0,0.552 0,0" id="path42"/></g><g
        id="g44" transform="translate(30,28)"><path style="fill:#b8c5cd;fill-opacity:1;fill-rule:nonzero;stroke:none" d="M 0,0 C 0,-0.553 0.447,-1 1,-1 1.553,-1 2,-0.553 2,0 2,0.552 1.553,1 1,1 0.447,1 0,0.552 0,0" id="path46"/></g><g
        id="g48" transform="translate(15,6)"><path style="fill:#b8c5cd;fill-opacity:1;fill-rule:nonzero;stroke:none" d="M 0,0 C 0,-0.553 0.447,-1 1,-1 1.553,-1 2,-0.553 2,0 2,0.553 1.553,1 1,1 0.447,1 0,0.553 0,0" id="path50"/></g><g
        id="g52" transform="translate(35,18)"><path style="fill:#b8c5cd;fill-opacity:1;fill-rule:nonzero;stroke:none" d="m 0,0 c 0,-1.104 -0.896,-2 -2,-2 -1.104,0 -2,0.896 -2,2 0,1.104 0.896,2 2,2 1.104,0 2,-0.896 2,-2" id="path54"/></g><g
        id="g56" transform="translate(13,14)"><path style="fill:#b8c5cd;fill-opacity:1;fill-rule:nonzero;stroke:none" d="m 0,0 c 0,-1.104 -0.896,-2 -2,-2 -1.104,0 -2,0.896 -2,2 0,1.104 0.896,2 2,2 1.104,0 2,-0.896 2,-2" id="path58"/></g></g></g></g>

    <metadata>
		<rdf:RDF xmlns:dc="http://purl.org/dc/elements/1.1/"
            xmlns:rdf="http://www.w3.org/1999/02/22-rdf-syntax-ns#">
			<rdf:Description about="https://iconscout.com/legal#licenses" dc:date="2016-12-14"
                dc:description="Full, Moon, Phase, Dark" dc:format="image/svg+xml" dc:language="en"
                dc:publisher="Iconscout" dc:title="Full, Moon, Phase, Dark">
				<dc:creator>
					<rdf:Bag>
						<rdf:li>Twitter Emoji</rdf:li>
					</rdf:Bag>
				</dc:creator>
			</rdf:Description>
		</rdf:RDF>
    </metadata></svg>
