<?xml version="1.0" encoding="UTF-8"?><!DOCTYPE svg PUBLIC "-//W3C//DTD SVG 1.1//EN"
    "http://www.w3.org/Graphics/SVG/1.1/DTD/svg11.dtd">
<svg version="1.1" viewBox="0 0 64 64" x="0px" xmlns="http://www.w3.org/2000/svg" y="0px"
    xml:space="preserve"><g id="flat"><g id="sunny_1_"><path d="M32 6.996a1 1 0 0 1-1-1V3a1 1 0 0 1 2 0v2.996a1 1 0 0 1-1 1z" fill="#FBB03B"/><path
    d="M50.388 14.612a.999.999 0 0 1-.707-1.707l2.118-2.118a.999.999 0 1 1 1.414 1.414l-2.118 2.118a.995.995 0 0 1-.707.293z"
    fill="#FBB03B" /><path d="M61 33h-2.996a1 1 0 0 1 0-2H61a1 1 0 0 1 0 2z" fill="#FBB03B" /><path
    d="M52.506 53.506a.997.997 0 0 1-.707-.293l-2.118-2.118a.999.999 0 1 1 1.414-1.414l2.118 2.118a.999.999 0 0 1-.707 1.707z"
    fill="#FBB03B" /><path d="M32 62a1 1 0 0 1-1-1v-2.996a1 1 0 0 1 2 0V61a1 1 0 0 1-1 1z"
    fill="#FBB03B" /><path
    d="M11.494 53.506a.999.999 0 0 1-.707-1.707l2.118-2.118a.999.999 0 1 1 1.414 1.414l-2.118 2.118a.997.997 0 0 1-.707.293z"
    fill="#FBB03B" /><path d="M5.996 33H3a1 1 0 0 1 0-2h2.996a1 1 0 0 1 0 2z" fill="#FBB03B" /><path
    d="M13.612 14.612a.997.997 0 0 1-.707-.293l-2.118-2.118a.999.999 0 1 1 1.414-1.414l2.118 2.118a.999.999 0 0 1-.707 1.707z"
    fill="#FBB03B" /><path d="M32 6.996a1 1 0 0 1-1-1V3a1 1 0 0 1 2 0v2.996a1 1 0 0 1-1 1z"
    fill="#FBB03B" /><path
    d="M50.388 14.612a.999.999 0 0 1-.707-1.707l2.118-2.118a.999.999 0 1 1 1.414 1.414l-2.118 2.118a.995.995 0 0 1-.707.293z"
    fill="#FBB03B" /><path d="M61 33h-2.996a1 1 0 0 1 0-2H61a1 1 0 0 1 0 2z" fill="#FBB03B" /><path
    d="M52.506 53.506a.997.997 0 0 1-.707-.293l-2.118-2.118a.999.999 0 1 1 1.414-1.414l2.118 2.118a.999.999 0 0 1-.707 1.707z"
    fill="#FBB03B" /><path d="M32 62a1 1 0 0 1-1-1v-2.996a1 1 0 0 1 2 0V61a1 1 0 0 1-1 1z"
    fill="#FBB03B" /><path
    d="M11.494 53.506a.999.999 0 0 1-.707-1.707l2.118-2.118a.999.999 0 1 1 1.414 1.414l-2.118 2.118a.997.997 0 0 1-.707.293z"
    fill="#FBB03B" /><path d="M5.996 33H3a1 1 0 0 1 0-2h2.996a1 1 0 0 1 0 2z" fill="#FBB03B" /><path
    d="M13.612 14.612a.997.997 0 0 1-.707-.293l-2.118-2.118a.999.999 0 1 1 1.414-1.414l2.118 2.118a.999.999 0 0 1-.707 1.707z"
    fill="#FBB03B" /><path
    d="M41.942 8.972a1 1 0 0 1-.924-1.383l1.146-2.768a.999.999 0 1 1 1.848.764l-1.146 2.768a.998.998 0 0 1-.924.619z"
    fill="#FBB03B" /><path
    d="M56.022 23.041a1.001 1.001 0 0 1-.383-1.925l2.767-1.147a1.001 1.001 0 0 1 .766 1.848l-2.767 1.147a1.003 1.003 0 0 1-.383.077z"
    fill="#FBB03B" /><path
    d="M58.796 44.089a.995.995 0 0 1-.382-.077l-2.768-1.146a1 1 0 0 1 .764-1.848l2.768 1.146a1 1 0 0 1-.382 1.925z"
    fill="#FBB03B" /><path
    d="M43.108 59.789a.998.998 0 0 1-.924-.618l-1.147-2.767a1.001 1.001 0 0 1 1.848-.766l1.147 2.767a1.001 1.001 0 0 1-.924 1.384z"
    fill="#FBB03B" /><path
    d="M20.911 59.797a1 1 0 0 1-.924-1.383l1.146-2.768a.999.999 0 1 1 1.848.764l-1.146 2.768a.999.999 0 0 1-.924.619z"
    fill="#FBB03B" /><path
    d="M5.212 44.108a1.001 1.001 0 0 1-.383-1.925l2.767-1.147a1 1 0 1 1 .766 1.848l-2.767 1.147a1.003 1.003 0 0 1-.383.077z"
    fill="#FBB03B" /><path
    d="M7.971 23.058a.995.995 0 0 1-.382-.077l-2.768-1.146a1 1 0 0 1 .764-1.848l2.768 1.146a1 1 0 0 1-.382 1.925z"
    fill="#FBB03B" /><path
    d="M22.041 8.979a.998.998 0 0 1-.924-.618L19.97 5.594a1 1 0 0 1 1.847-.765l1.147 2.767a1.001 1.001 0 0 1-.923 1.383z"
    fill="#FBB03B" /><path
    d="M41.942 8.972a1 1 0 0 1-.924-1.383l1.146-2.768a.999.999 0 1 1 1.848.764l-1.146 2.768a.998.998 0 0 1-.924.619z"
    fill="#FBB03B" /><path
    d="M56.022 23.041a1.001 1.001 0 0 1-.383-1.925l2.767-1.147a1.001 1.001 0 0 1 .766 1.848l-2.767 1.147a1.003 1.003 0 0 1-.383.077z"
    fill="#FBB03B" /><path
    d="M58.796 44.089a.995.995 0 0 1-.382-.077l-2.768-1.146a1 1 0 0 1 .764-1.848l2.768 1.146a1 1 0 0 1-.382 1.925z"
    fill="#FBB03B" /><path
    d="M43.108 59.789a.998.998 0 0 1-.924-.618l-1.147-2.767a1.001 1.001 0 0 1 1.848-.766l1.147 2.767a1.001 1.001 0 0 1-.924 1.384z"
    fill="#FBB03B" /><path
    d="M20.911 59.797a1 1 0 0 1-.924-1.383l1.146-2.768a.999.999 0 1 1 1.848.764l-1.146 2.768a.999.999 0 0 1-.924.619z"
    fill="#FBB03B" /><path
    d="M5.212 44.108a1.001 1.001 0 0 1-.383-1.925l2.767-1.147a1 1 0 1 1 .766 1.848l-2.767 1.147a1.003 1.003 0 0 1-.383.077z"
    fill="#FBB03B" /><path
    d="M7.971 23.058a.995.995 0 0 1-.382-.077l-2.768-1.146a1 1 0 0 1 .764-1.848l2.768 1.146a1 1 0 0 1-.382 1.925z"
    fill="#FBB03B" /><path
    d="M22.041 8.979a.998.998 0 0 1-.924-.618L19.97 5.594a1 1 0 0 1 1.847-.765l1.147 2.767a1.001 1.001 0 0 1-.923 1.383z"
    fill="#FBB03B" /><circle cx="32" cy="32" fill="#FBB03B" r="23" /><path
    d="M49.667 17.276A22.953 22.953 0 0 1 51 25c0 12.703-10.297 23-23 23-7.101 0-13.448-3.219-17.667-8.276C13.507 48.626 22.008 55 32 55c12.703 0 23-10.297 23-23a22.908 22.908 0 0 0-5.333-14.724z"
    fill="#E29E35" /></g></g>
    <metadata><rdf:RDF xmlns:dc="http://purl.org/dc/elements/1.1/"  xmlns:rdf="http://www.w3.org/1999/02/22-rdf-syntax-ns#"><rdf:Description about="https://iconscout.com/legal#licenses" dc:date="2018-03-23" dc:description="sun-sunny-sunlight-summer-hot" dc:format="image/svg+xml" dc:language="en" dc:publisher="Iconscout" dc:title="sun-sunny-sunlight-summer-hot"><dc:creator><rdf:Bag><rdf:li>Petai Jantrapoon</rdf:li></rdf:Bag></dc:creator></rdf:Description></rdf:RDF></metadata></svg>