<?xml version="1.0" encoding="UTF-8"?><!DOCTYPE svg PUBLIC "-//W3C//DTD SVG 1.1//EN"
    "http://www.w3.org/Graphics/SVG/1.1/DTD/svg11.dtd">
<svg
    style="shape-rendering:geometricPrecision; text-rendering:geometricPrecision; image-rendering:optimizeQuality; fill-rule:evenodd; clip-rule:evenodd"
    height="6.82666in" viewBox="0 0 6.82666 6.82666" width="6.82666in"
    xmlns="http://www.w3.org/2000/svg" xml:space="preserve">
 <defs>
  <style type="text/css">
   <![CDATA[
    .fil3 {fill:none}
    .fil0 {fill:#5E6A70}
    .fil2 {fill:#9BADB6}
    .fil1 {fill:#BBBBBB}
   ]]>
  </style>
 </defs>
    <g id="Layer_x0020_1">
  
  <path style="fill: #5E6A70;" class="fil0"
      d="M1.60759 3.75215c0.00234646,-0.00393307 0.00468504,-0.00875197 0.0066378,-0.0133031 -0.0144488,-0.0380866 -0.025626,-0.077374 -0.0335079,-0.11735 -0.0092126,-0.0467283 -0.0137598,-0.0942874 -0.0137598,-0.141913 0,-0.197311 0.078878,-0.384043 0.21915,-0.522433 0.141421,-0.13952 0.331122,-0.216319 0.52965,-0.216319 0.17089,0 0.335835,0.0567953 0.46965,0.163232 0.132067,0.105047 0.228681,0.251256 0.262039,0.417878 3.54331e-005,0.000177165 9.05512e-005,0.000429134 0.000165354,0.000673228 8.66142e-005,-2.3622e-005 0.000173228,-4.72441e-005 0.00026378,-7.08661e-005 0.0802402,-0.0831811 0.187362,-0.125748 0.302917,-0.114472 0.064189,0.00626772 0.126323,0.0289685 0.180213,0.064248 0.0535669,0.0350669 0.098878,0.082622 0.129319,0.139087 0.053,0.0982992 0.0568228,0.20974 0.00985433,0.311291 -1.1811e-005,3.54331e-005 -2.75591e-005,6.29921e-005 -4.33071e-005,9.44882e-005 0.000330709,0.000547244 0.000708661,0.00111024 0.00111417,0.00167717 0.14537,0.00830315 0.281862,0.0708701 0.382681,0.176028 0.100528,0.104846 0.156449,0.242972 0.156449,0.388346 0,0.150945 -0.060315,0.293846 -0.167634,0.399724 -0.108205,0.106752 -0.253378,0.1655 -0.405272,0.1655l-2.21124 0c-0.151894,0 -0.297071,-0.058748 -0.405276,-0.1655 -0.107315,-0.105874 -0.167634,-0.24878 -0.167634,-0.399724 0,-0.150941 0.0603189,-0.29385 0.167634,-0.399724 0.108205,-0.106752 0.253382,-0.165496 0.405276,-0.165496 0.0333583,0 0.0667008,0.00275984 0.0995748,0.00844094 0.00856693,0.00147638 0.0171772,0.00274409 0.0257323,0.00431496 0.0194685,0.00357874 0.0377087,0.00918504 0.0560472,0.0157717z" />
        <path style="fill: #BBBBBB;" class="fil1"
            d="M3.42095 3.25528c0.0165945,0.0649213 0.0379724,0.12802 0.0637205,0.188874 0.246425,-0.173531 0.578319,-0.190008 0.84289,-0.0301417 0.0857756,0.0518307 0.160685,0.119976 0.220409,0.200146 0.220921,-0.0596575 0.463366,-0.0169685 0.650327,0.116799 0.108783,0.0778386 0.195791,0.182705 0.251925,0.30378 0.00415748,0.00113386 0.00829921,0.0023189 0.0124213,0.00354724 0.0535945,-0.0216535 0.218236,-0.179969 0.245476,-0.209669 0.104126,-0.113512 0.188965,-0.245031 0.249303,-0.389339 0.00436614,0.00179528 0.0197008,-0.0662402 -0.0367795,-0.0898504 -0.0377953,-0.0157953 -0.216126,0.0566024 -0.279709,0.0693031 -0.0765512,0.0152953 -0.155803,0.0233268 -0.236996,0.0233268 -0.332295,0 -0.633138,-0.134689 -0.85089,-0.352445 -0.21776,-0.217756 -0.352449,-0.518594 -0.352449,-0.850894 0,-0.159531 0.0392047,-0.330224 0.0962677,-0.472374 0.106705,-0.265102 -0.917587,0.229472 -0.917587,1.15627 0,0.11476 0.0144685,0.22622 0.0416693,0.332665z" />
        <path style="fill: #9BADB6;" class="fil2"
            d="M3.29862 3.99919c0.00241339,-0.00404331 0.00481496,-0.00899606 0.0068189,-0.0136732 -0.0148425,-0.0391378 -0.0263307,-0.0795118 -0.0344291,-0.120594 -0.00947244,-0.0480197 -0.0141417,-0.0968937 -0.0141417,-0.145835 0,-0.202764 0.0810551,-0.394654 0.225205,-0.536866 0.145331,-0.143378 0.340272,-0.222299 0.544283,-0.222299 0.175614,0 0.345114,0.0583622 0.48263,0.167744 0.135713,0.107953 0.235,0.258201 0.26928,0.429425 3.54331e-005,0.000181102 9.44882e-005,0.000437008 0.000169291,0.000688976 9.05512e-005,-1.9685e-005 0.000177165,-4.72441e-005 0.000271654,-7.08661e-005 0.0824567,-0.0854764 0.192539,-0.129224 0.311287,-0.117634 0.0659606,0.00643701 0.129811,0.0297677 0.185193,0.0660236 0.0550472,0.0360354 0.101606,0.0849016 0.132894,0.142929 0.0544646,0.101016 0.0583898,0.215535 0.010126,0.319894 -1.5748e-005,3.14961e-005 -2.75591e-005,6.29921e-005 -4.72441e-005,9.44882e-005 0.000338583,0.000562992 0.000728346,0.00114173 0.00114567,0.00172441 0.149386,0.0085315 0.28965,0.0728268 0.393256,0.18089 0.103303,0.107744 0.160772,0.249689 0.160772,0.399079 0,0.155114 -0.0619843,0.301969 -0.172268,0.410768 -0.111193,0.109701 -0.260378,0.170075 -0.416469,0.170075l-2.27234 0c-0.156091,0 -0.30528,-0.0603701 -0.416472,-0.170071 -0.110283,-0.108803 -0.172268,-0.255657 -0.172268,-0.410772 0,-0.155114 0.0619843,-0.301969 0.172268,-0.410772 0.111193,-0.109701 0.260382,-0.170067 0.416472,-0.170067 0.0342835,0 0.0685433,0.00283465 0.102327,0.00867323 0.00880709,0.00151969 0.0176535,0.0028189 0.0264449,0.00443701 0.0200079,0.00367323 0.038748,0.00943701 0.0575945,0.0162087z" />
 </g>
    <rect style="fill: none;" class="fil3" height="6.82666" width="6.82666" />


    <metadata>
		<rdf:RDF xmlns:dc="http://purl.org/dc/elements/1.1/"
            xmlns:rdf="http://www.w3.org/1999/02/22-rdf-syntax-ns#">
			<rdf:Description about="https://iconscout.com/legal#licenses" dc:date="2016-12-14"
                dc:description="Cloud, And, Moon, Cloudy, Night, Weather" dc:format="image/svg+xml"
                dc:language="en" dc:publisher="Iconscout"
                dc:title="Cloud, And, Moon, Cloudy, Night, Weather">
				<dc:creator>
					<rdf:Bag>
						<rdf:li>Design 0 Fire</rdf:li>
					</rdf:Bag>
				</dc:creator>
			</rdf:Description>
		</rdf:RDF>
    </metadata></svg>
