<svg height="27.01" viewBox="0 0 7.408 7.146" width="28" xmlns="http://www.w3.org/2000/svg">
    <g transform="translate(-108.953 -167.393)">
        <path
            d="m 112.65761,168.98094 a 2.1166666,2.1166666 0 0 0 -1.8464,1.08314 1.5875,1.5875 0 0 0 -0.27027,-0.0248 1.5875,1.5875 0 0 0 -1.5875,1.5875 1.5875,1.5875 0 0 0 1.5875,1.5875 1.5875,1.5875 0 0 0 0.97565,-0.33589 2.1166666,2.1166666 0 0 0 1.14102,0.33589 2.1166666,2.1166666 0 0 0 1.35289,-0.49144 1.3229166,1.3229166 0 0 0 1.02837,0.49144 1.3229166,1.3229166 0 0 0 1.32292,-1.32291 1.3229166,1.3229166 0 0 0 -1.32292,-1.32292 1.3229166,1.3229166 0 0 0 -0.32401,0.0413 2.1166666,2.1166666 0 0 0 -2.05725,-1.62884 z"
            fill="#00aad4" paint-order="fill markers stroke" />
        <path
            d="M114.77429 173.74344l-.52917.52916M112.65761 173.74344l-.52916.52916M110.54094 173.74344l-.52916.52916"
            fill="none" stroke="#045" stroke-linecap="round" stroke-linejoin="round"
            stroke-width=".529" />
        <path
            d="m 114.77428,167.39344 a 1.5875001,1.5875 0 0 0 -1.5875,1.5875 1.5875001,1.5875 0 0 0 0.004,0.0703 2.1166666,2.1166666 0 0 1 1.51154,1.51463 1.5875001,1.5875 0 0 0 0.0724,0.003 1.5875001,1.5875 0 0 0 1.52962,-1.16996 1.0583333,1.0583333 0 0 1 -0.47129,0.11162 1.0583333,1.0583333 0 0 1 -1.05833,-1.05833 1.0583333,1.0583333 0 0 1 0.58394,-0.94568 1.5875001,1.5875 0 0 0 -0.58394,-0.11265 z"
            fill="#fc0" paint-order="fill markers stroke" />
    </g>
</svg>