<?xml version="1.0" encoding="UTF-8"?><!DOCTYPE svg PUBLIC "-//W3C//DTD SVG 1.1//EN"
    "http://www.w3.org/Graphics/SVG/1.1/DTD/svg11.dtd">
<svg height="72px" id="Layer_1" version="1.1" viewBox="0 0 72 72" width="72px" x="0px"
    xmlns="http://www.w3.org/2000/svg" y="0px" xml:space="preserve"><path d="M25.268 16.149a.999.999 0 0 1-.924-.618l-1.217-2.937a1.001 1.001 0 0 1 1.848-.766l1.217 2.937a1.001 1.001 0 0 1-.924 1.384z" fill="#FFAA45"/>
    <path
        d="M16.551 31.321a1 1 0 0 1-.383-1.924l2.937-1.217a1.001 1.001 0 0 1 .766 1.848l-2.937 1.217a1.002 1.002 0 0 1-.383.076z"
        fill="#FFAA45" />
    <path
        d="M39.224 21.93a1 1 0 0 1-.383-1.925l2.937-1.216a1.001 1.001 0 0 1 .766 1.848l-2.937 1.216a.996.996 0 0 1-.383.077z"
        fill="#FFAA45" />
    <path
        d="M33.443 16.149a1 1 0 0 1-.924-1.384l1.217-2.937a1.001 1.001 0 0 1 1.848.766l-1.217 2.937a.999.999 0 0 1-.924.618z"
        fill="#FFAA45" />
    <path
        d="M19.487 21.93a.996.996 0 0 1-.383-.077l-2.937-1.216a1 1 0 0 1 .766-1.848l2.937 1.216a1 1 0 0 1-.383 1.925z"
        fill="#FFAA45" />
    <circle cx="29.356" cy="25.017" fill="#FFAA45" r="8.291" />
    <path
        d="M29.353 18.724a6.276 6.276 0 0 1 5.815 3.885 6.25 6.25 0 0 1 0 4.815 6.25 6.25 0 0 1-3.404 3.404 6.256 6.256 0 0 1-2.404.481 6.276 6.276 0 0 1-5.815-3.885 6.25 6.25 0 0 1 0-4.815 6.25 6.25 0 0 1 3.404-3.404 6.252 6.252 0 0 1 2.404-.481"
        fill="#FFDA69" />
    <path
        d="M27.699 56.537a1.001 1.001 0 0 1-.937-1.351l3-8a1.001 1.001 0 0 1 1.873.703l-3 8a.999.999 0 0 1-.936.648z"
        fill="#45ABFF" />
    <path
        d="M32.105 60.788a1.001 1.001 0 0 1-.937-1.351l4.594-12.251a1.001 1.001 0 0 1 1.873.703L33.042 60.14a1 1 0 0 1-.937.648z"
        fill="#45ABFF" />
    <path
        d="M38.621 59.413a1.001 1.001 0 0 1-.937-1.351l4.078-10.876a1.002 1.002 0 0 1 1.873.703l-4.078 10.876a1 1 0 0 1-.936.648z"
        fill="#45ABFF" />
    <path
        d="M45.699 56.537a1.001 1.001 0 0 1-.937-1.351l3-8a1.001 1.001 0 0 1 1.873.703l-3 8a.999.999 0 0 1-.936.648z"
        fill="#45ABFF" />
    <path
        d="M43.842 23.517c-3.586 0-6.83 1.837-8.681 4.801a7.51 7.51 0 0 0-7.735 3.85 5.936 5.936 0 0 0-5.62 5.921c0 2.936 2.18 5.25 5.554 5.893 2.206.421 5.395.577 11.768.577 6.022 0 9.86-.302 12.019-.555 3.172-.372 5.303-2.591 5.303-5.522a5.491 5.491 0 0 0-2.359-4.52l.002-.194c-.001-5.653-4.599-10.251-10.251-10.251z"
        fill="#868686" />
    <path
        d="M51.971 35.125a8.32 8.32 0 0 0 .121-1.357 8.248 8.248 0 1 0-15.897-3.088 5.498 5.498 0 0 0-7.479 3.619 3.872 3.872 0 0 0-.981-.138 3.929 3.929 0 0 0-3.929 3.929c0 2.17 1.744 3.512 3.929 3.929s5.518.542 11.393.542 9.655-.292 11.786-.542c2.131-.25 3.536-1.583 3.536-3.536a3.526 3.526 0 0 0-2.479-3.358z"
        fill="#BFBFBF" />
    <path
        d="M27.735 36.194c.341 0 .666.057.981.138a5.497 5.497 0 0 1 7.479-3.619 8.247 8.247 0 0 1 7.647-5.162c4.203 0 7.664 3.144 8.177 7.207a7.72 7.72 0 0 0 .073-.992 8.248 8.248 0 1 0-15.897-3.088 5.498 5.498 0 0 0-7.479 3.619 3.872 3.872 0 0 0-.981-.138 3.929 3.929 0 0 0-3.929 3.929c0 .36.064.689.154 1.004.456-1.666 1.964-2.898 3.775-2.898z"
        fill="#E0E0E0" />
    <metadata><rdf:RDF xmlns:dc="http://purl.org/dc/elements/1.1/"  xmlns:rdf="http://www.w3.org/1999/02/22-rdf-syntax-ns#"><rdf:Description about="https://iconscout.com/legal#licenses" dc:date="2017-09-19" dc:description="rain,sun,weather" dc:format="image/svg+xml" dc:language="en" dc:publisher="Iconscout" dc:title="rain,sun,weather"><dc:creator><rdf:Bag><rdf:li>Amedia Utvikling</rdf:li></rdf:Bag></dc:creator></rdf:Description></rdf:RDF></metadata></svg>