<svg height="288" id="SvgjsSvg1001" version="1.1" width="288" xmlns="http://www.w3.org/2000/svg">
    <defs id="SvgjsDefs1002"></defs>
    <g id="SvgjsG1008" transform="matrix(0.9167,0,0,0.9167,11.995198728942881,11.995198728942881)">
        <svg clip-rule="evenodd" fill-rule="evenodd" height="288" image-rendering="optimizeQuality"
            shape-rendering="geometricPrecision" text-rendering="geometricPrecision"
            viewBox="0 0 6.827 6.827" width="288" xmlns="http://www.w3.org/2000/svg">
            <path class="color90a4ae svgShape"
                d="M2.00369 3.34425c0.00358268,-0.006 0.00714567,-0.0133504 0.010122,-0.0202913 -0.0220315,-0.0580906 -0.0390787,-0.118008 -0.0511024,-0.17898 -0.0140512,-0.0712677 -0.0209843,-0.143803 -0.0209843,-0.216437 0,-0.300929 0.120295,-0.58572 0.334236,-0.796783 0.215689,-0.212791 0.505004,-0.329921 0.807791,-0.329921 0.260634,0 0.512197,0.086622 0.716283,0.248953 0.201417,0.160217 0.348772,0.383205 0.39965,0.637327 5.11811e-005,0.000267717 0.000137795,0.000649606 0.000248031,0.00102362 0.000133858,-3.14961e-005 0.000267717,-6.69291e-005 0.000405512,-0.000102362 0.122378,-0.126862 0.285752,-0.191787 0.461992,-0.174587 0.0978976,0.00955512 0.192661,0.0441772 0.27485,0.0979882 0.0817008,0.0534803 0.150799,0.126008 0.197232,0.212122 0.0808307,0.149921 0.0866614,0.319886 0.0150276,0.474768 -1.9685e-005,4.72441e-005 -3.93701e-005,9.44882e-005 -6.29921e-005,0.000141732 0.0005,0.000834646 0.0010748,0.00169685 0.00169685,0.00255906 0.221709,0.0126614 0.429878,0.108083 0.583646,0.268469 0.153315,0.159906 0.238606,0.370567 0.238606,0.592283 0,0.230213 -0.0919921,0.448161 -0.255665,0.609634 -0.165028,0.162815 -0.386441,0.252413 -0.618102,0.252413l-3.37246 0c-0.231661,0 -0.453079,-0.0895945 -0.618106,-0.252409 -0.163673,-0.161472 -0.255665,-0.379425 -0.255665,-0.609638 0,-0.230209 0.0919921,-0.448161 0.255665,-0.609638 0.165028,-0.162815 0.386445,-0.252409 0.618106,-0.252409 0.050878,0 0.101724,0.0042126 0.151862,0.012874 0.0130709,0.00225591 0.0262008,0.00418898 0.039248,0.00658661 0.0296969,0.00545276 0.0575079,0.0140039 0.0854803,0.0240551z"
                fill="#eef2f5"></path>
            <rect fill="none" height="6.827" width="6.827"></rect>
        </svg>
    </g>
</svg>