<?xml version="1.0" encoding="UTF-8"?><!DOCTYPE svg PUBLIC "-//W3C//DTD SVG 1.1//EN"
    "http://www.w3.org/Graphics/SVG/1.1/DTD/svg11.dtd">
<svg
    style="shape-rendering:geometricPrecision; text-rendering:geometricPrecision; image-rendering:optimizeQuality; fill-rule:evenodd; clip-rule:evenodd"
    height="6.82666in" viewBox="0 0 6.82666 6.82666" width="6.82666in"
    xmlns="http://www.w3.org/2000/svg" xml:space="preserve">
 <defs>
  <style type="text/css">
   <![CDATA[
    .fil2 {fill:none}
    .fil1 {fill:#1E88E5}
    .fil0 {fill:#78909C}
   ]]>
  </style>
 </defs>
    <g id="Layer_x0020_1">
  
  <g id="_247014672">
   <path style="fill: #78909C;" class="fil0"
       d="M1.58279 2.28038c0,0.00869685 0.00011811,0.0173898 0.00034252,0.0260827 -0.186713,0.041 -0.356126,0.139154 -0.485567,0.280421 -0.157433,0.171819 -0.244236,0.394299 -0.244236,0.627421 0,0.247315 0.0973898,0.482386 0.272244,0.657236 0.174846,0.174854 0.409921,0.272244 0.65724,0.272244l3.26103 0c0.247315,0 0.482394,-0.0973898 0.65724,-0.272244 0.174854,-0.17485 0.272248,-0.409921 0.272248,-0.657236 0,-0.225776 -0.0813386,-0.441799 -0.229992,-0.611654 -0.13163,-0.150413 -0.307961,-0.25463 -0.503091,-0.296681 -0.0847323,-0.205811 -0.226465,-0.384098 -0.407535,-0.513661 -0.201437,-0.14413 -0.440858,-0.220752 -0.688547,-0.220752 -0.0833346,0 -0.166488,0.00879134 -0.247992,0.0261732 -0.0455984,0.00972441 -0.0905945,0.022189 -0.134697,0.0372717 -0.0976496,-0.150106 -0.228394,-0.276768 -0.381843,-0.369492 -0.185059,-0.111823 -0.395646,-0.170134 -0.611835,-0.170134 -0.315319,0 -0.614996,0.124157 -0.837925,0.347091 -0.222925,0.222925 -0.347083,0.522598 -0.347083,0.837913z"
       id="_247015824" />
      <g>
    <path style="fill: #1E88E5;" class="fil1"
        d="M2.50089 4.43199c-0.0575197,0.107657 -0.228543,0.428157 0,0.455063 0.00139764,-0.000165354 0.00277559,-0.000338583 0.00414173,-0.000523622 0.222307,-0.0302913 0.0530236,-0.347535 -0.00414173,-0.454539z"
        id="_247016088" />
          <path style="fill: #1E88E5;" class="fil1"
              d="M3.71748 4.43199c-0.0575157,0.107657 -0.228539,0.428157 0,0.455063 0.00139764,-0.000165354 0.00277953,-0.000338583 0.00414567,-0.000523622 0.222307,-0.0302913 0.0530236,-0.347535 -0.00414567,-0.454539z"
              id="_247015800" />
          <path style="fill: #1E88E5;" class="fil1"
              d="M4.93408 4.43199c-0.0575157,0.107657 -0.228539,0.428157 0,0.455063 0.00139764,-0.000165354 0.00277559,-0.000338583 0.00414567,-0.000523622 0.222307,-0.0302913 0.0530197,-0.347535 -0.00414567,-0.454539z"
              id="_247016112" />
          <path style="fill: #1E88E5;" class="fil1"
              d="M3.11579 5.27623c-0.0575197,0.107657 -0.228543,0.428154 0,0.455063 0.00139764,-0.000165354 0.00277559,-0.00034252 0.00414173,-0.000527559 0.222307,-0.0302874 0.0530236,-0.347535 -0.00414173,-0.454535z"
              id="_247015272" />
          <path style="fill: #1E88E5;" class="fil1"
              d="M4.31947 5.27623c-0.0575157,0.107657 -0.228539,0.428154 0,0.455063 0.00139764,-0.000165354 0.00277559,-0.00034252 0.00414567,-0.000527559 0.222307,-0.0302874 0.0530236,-0.347535 -0.00414567,-0.454535z"
              id="_247015728" />
          <path style="fill: #1E88E5;" class="fil1"
              d="M1.89259 4.43199c-0.0575157,0.107657 -0.228539,0.428157 0,0.455063 0.00139764,-0.000165354 0.00277559,-0.000338583 0.00414567,-0.000523622 0.222307,-0.0302913 0.0530197,-0.347535 -0.00414567,-0.454539z"
              id="_247015656" />
          <path style="fill: #1E88E5;" class="fil1"
              d="M3.10919 4.43199c-0.0575197,0.107657 -0.228543,0.428157 0,0.455063 0.00139764,-0.000165354 0.00277559,-0.000338583 0.00414567,-0.000523622 0.222303,-0.0302913 0.0530197,-0.347535 -0.00414567,-0.454539z"
              id="_247015320" />
          <path style="fill: #1E88E5;" class="fil1"
              d="M4.32578 4.43199c-0.0575157,0.107657 -0.228539,0.428157 0,0.455063 0.00139764,-0.000165354 0.00277953,-0.000338583 0.00414567,-0.000523622 0.222307,-0.0302913 0.0530236,-0.347535 -0.00414567,-0.454539z"
              id="_247015176" />
          <path style="fill: #1E88E5;" class="fil1"
              d="M2.51394 5.27623c-0.0575157,0.107657 -0.228543,0.428154 0,0.455063 0.00139764,-0.000165354 0.00277559,-0.00034252 0.00414567,-0.000527559 0.222307,-0.0302874 0.0530197,-0.347535 -0.00414567,-0.454535z"
              id="_247014696" />
          <path style="fill: #1E88E5;" class="fil1"
              d="M3.71763 5.27623c-0.0575197,0.107657 -0.228543,0.428154 0,0.455063 0.00139764,-0.000165354 0.00277559,-0.00034252 0.00414173,-0.000527559 0.222307,-0.0302874 0.0530236,-0.347535 -0.00414173,-0.454535z"
              id="_247014792" />
   </g>
  </g>
 </g>
    <rect style="fill: none;" class="fil2" height="6.82666" width="6.82666" />


    <metadata>
		<rdf:RDF xmlns:dc="http://purl.org/dc/elements/1.1/"
            xmlns:rdf="http://www.w3.org/1999/02/22-rdf-syntax-ns#">
			<rdf:Description about="https://iconscout.com/legal#licenses" dc:date="2016-12-14"
                dc:description="Rain, Clouds, Cloudy, Drop, Weather" dc:format="image/svg+xml"
                dc:language="en" dc:publisher="Iconscout"
                dc:title="Rain, Clouds, Cloudy, Drop, Weather">
				<dc:creator>
					<rdf:Bag>
						<rdf:li>Design 0 Fire</rdf:li>
					</rdf:Bag>
				</dc:creator>
			</rdf:Description>
		</rdf:RDF>
    </metadata></svg>
