<svg id="Layer_1" viewBox="0 0 32 32" xmlns="http://www.w3.org/2000/svg">
    <path d="M20 6.5h-.5v-2a2 2 0 0 0-2-2h-3a2 2 0 0 0-2 2v2H12a1 1 0 0 0 0 2h8a1 1 0 0 0 0-2z"
        fill="#4b6c85" />
    <path
        d="M21.713 17.199A.996.996 0 0 1 21 17.5h-.5v1a1 1 0 0 1-1 1h-1a1 1 0 0 1-1-1v-1H11a.997.997 0 0 1-.707-.293 7.615 7.615 0 0 0-.933 1.343A7.32 7.32 0 0 0 8.5 22a7.5 7.5 0 0 0 15 0c0-1.84-.684-3.502-1.787-4.801z"
        fill="#eef2fa" />
    <path
        d="M15.5 21.5h1a1 1 0 0 0 1-1v-3h-3v3a1 1 0 0 0 1 1zM21.713 17.199A.996.996 0 0 1 21 17.5h-.5v1a.987.987 0 0 1-.501.848A7.26 7.26 0 0 1 20.5 22a7.502 7.502 0 0 1-6 7.349 7.5 7.5 0 0 0 9-7.349c0-1.84-.684-3.502-1.787-4.801z"
        fill="#d5e5f2" />
    <path d="M17.5 18.5v-1h-2v3a1 1 0 0 0 1 1h1a1 1 0 0 0 1-1v-1a1 1 0 0 1-1-1z" fill="#e0313f" />
    <path d="M17.5 18.5v-1h-2v1h1a2 2 0 0 0 2 2v-1a1 1 0 0 1-1-1z" fill="#c42c3e" />
    <path d="M20 8.5h-8a1 1 0 0 1 0-2h8a1 1 0 0 1 0 2z" fill="#40657c" />
    <path d="M20 6.5h-2a1 1 0 0 1 0 2h2a1 1 0 0 0 0-2z" fill="#3a5e70" />
    <path d="M19.5 6.5h-7v-2a2 2 0 0 1 2-2h3a2 2 0 0 1 2 2v2z" fill="#4b6c85" />
    <path d="M17.5 2.5h-2a2 2 0 0 1 2 2v2h2v-2a2 2 0 0 0-2-2z" fill="#40657c" />
    <path d="M17.5 15.5a1 1 0 0 0-1-1H11a1 1 0 0 0-1 1v1a1 1 0 0 0 1 1h6.5v-2z" fill="#ef4a4c" />
    <path d="M16.5 14.5h-1a1 1 0 0 1 1 1v2h1v-2a1 1 0 0 0-1-1z" fill="#e0313f" />
    <path d="M17.5 18.5v-3a1 1 0 0 0-1-1h3a1 1 0 0 1 1 1v3a1 1 0 0 1-1 1h-1a1 1 0 0 1-1-1"
        fill="#ef4a4c" />
    <path d="M21 14.5h-1.5a1 1 0 0 1 1 1v2h.5a1 1 0 0 0 1-1v-1a1 1 0 0 0-1-1z" fill="#e0313f" />
    <path d="M21.5 15.5v1.847a.985.985 0 0 0 .5-.847v-1a1 1 0 0 0-1-1h-.5a1 1 0 0 1 1 1z"
        fill="#ef4a4c" />
    <path
        d="M13.203 14.5h5.593c1.03-.825 1.703-2.078 1.703-3.5 0-.925-.281-1.785-.76-2.5h-7.48a4.478 4.478 0 0 0-.76 2.5c.001 1.422.674 2.675 1.704 3.5z"
        fill="#eef2fa" />
    <path
        d="M19.74 8.5h-7.48a4.478 4.478 0 0 0-.726 3.044c.076-.75.327-1.449.725-2.044h5.195c.483 0 .912.341.99.818.037.222.056.449.056.682 0 1.422-.673 2.675-1.703 3.5h2c1.03-.825 1.703-2.078 1.703-3.5 0-.925-.281-1.785-.76-2.5z"
        fill="#d5e5f2" />
    <path
        d="M22.07 19.025l4.86-4.05M24.93 16.975v-2M24.68 16.975h2.25M9.93 19.025l-4.86-4.05M7.07 16.975v-2M7.32 16.975H5.07"
        fill="none" stroke="#8a6845" stroke-linecap="round" stroke-linejoin="round"
        stroke-miterlimit="10" />
    <path
        d="M15 10.5c0 .28-.22.5-.5.5s-.5-.22-.5-.5.22-.5.5-.5.5.22.5.5zM18 10.5c0 .28-.22.5-.5.5s-.5-.22-.5-.5.22-.5.5-.5.5.22.5.5z"
        fill="#004463" />
    <path
        d="M16.66 12.16c0 .38-.66 1.34-.66 1.34s-.66-.96-.66-1.34c0-.36.3-.66.66-.66.36 0 .66.3.66.66z"
        fill="#fecb5b" />
</svg>