<?xml version="1.0" encoding="UTF-8"?><!DOCTYPE svg PUBLIC "-//W3C//DTD SVG 1.1//EN"
    "http://www.w3.org/Graphics/SVG/1.1/DTD/svg11.dtd">
<svg version="1.1" viewBox="0 0 64 64" x="0px" xmlns="http://www.w3.org/2000/svg" y="0px"
    xml:space="preserve"><g id="flat"><g id="lightning_1_"><path d="M30.999 62a1 1 0 0 1-.867-1.496L33.276 55H29a1.001 1.001 0 0 1-.868-1.496l4-7a1 1 0 1 1 1.736.992L30.724 53H35a1.001 1.001 0 0 1 .868 1.496l-4 7a.998.998 0 0 1-.869.504z" fill="#FBB03B"/><path
    d="M43.999 62a1 1 0 0 1-.867-1.496L46.276 55H42a1.001 1.001 0 0 1-.868-1.496l4-7a1 1 0 1 1 1.736.992L43.724 53H48a1.001 1.001 0 0 1 .868 1.496l-4 7a.998.998 0 0 1-.869.504z"
    fill="#FBB03B" /><path
    d="M17.999 62a1 1 0 0 1-.867-1.496L20.276 55H16a1.001 1.001 0 0 1-.868-1.496l4-7a1 1 0 1 1 1.736.992L17.724 53H22a1.001 1.001 0 0 1 .868 1.496l-4 7a.998.998 0 0 1-.869.504z"
    fill="#FBB03B" /><path
    d="M48.641 18.01a12.733 12.733 0 0 0-.07-6.303c-1.353-5.156-5.795-9.023-11.055-9.621-4.328-.492-8.544 1.17-11.348 4.427a10.031 10.031 0 0 0-4.419-.437c-3.977.486-7.353 3.429-8.401 7.325a9.795 9.795 0 0 0-.139 4.616C6.418 18.367 1 24.003 1 30.88v.24C1 38.222 6.778 44 13.88 44h34.24C55.222 44 61 38.222 61 31.12v-.24c0-6.928-5.498-12.596-12.359-12.87z"
    fill="#E6E6E6" /><path
    d="M56.718 21.311A12.778 12.778 0 0 1 58 26.879v.24c0 7.102-5.778 12.88-12.88 12.88H10.88c-3.307 0-6.317-1.264-8.601-3.32C4.359 41.002 8.771 44 13.88 44h34.24C55.222 44 61 38.222 61 31.12v-.24c0-3.798-1.659-7.209-4.282-9.569z"
    fill="#CCC" /></g></g>
    <metadata><rdf:RDF xmlns:dc="http://purl.org/dc/elements/1.1/"  xmlns:rdf="http://www.w3.org/1999/02/22-rdf-syntax-ns#"><rdf:Description about="https://iconscout.com/legal#licenses" dc:date="2018-03-23" dc:description="lightning-cloud-thunder-bolt-weather" dc:format="image/svg+xml" dc:language="en" dc:publisher="Iconscout" dc:title="lightning-cloud-thunder-bolt-weather"><dc:creator><rdf:Bag><rdf:li>Petai Jantrapoon</rdf:li></rdf:Bag></dc:creator></rdf:Description></rdf:RDF></metadata></svg>